<svg width="38" height="38" viewBox="0 0 38 38" fill="none" xmlns="http://www.w3.org/2000/svg">
<g id="Tick" filter="url(#filter0_d_137_186)">
<path d="M16.9 21.9L27.475 11.325L25.375 9.225L16.9 17.7L12.625 13.425L10.525 15.525L16.9 21.9ZM19 30C16.925 30 14.975 29.606 13.15 28.818C11.325 28.03 9.7375 26.9615 8.3875 25.6125C7.0375 24.2625 5.969 22.675 5.182 20.85C4.395 19.025 4.001 17.075 4 15C4 12.925 4.394 10.975 5.182 9.15C5.97 7.325 7.0385 5.7375 8.3875 4.3875C9.7375 3.0375 11.325 1.969 13.15 1.182C14.975 0.395 16.925 0.001 19 0C21.075 0 23.025 0.394 24.85 1.182C26.675 1.97 28.2625 3.0385 29.6125 4.3875C30.9625 5.7375 32.0315 7.325 32.8195 9.15C33.6075 10.975 34.001 12.925 34 15C34 17.075 33.606 19.025 32.818 20.85C32.03 22.675 30.9615 24.2625 29.6125 25.6125C28.2625 26.9625 26.675 28.0315 24.85 28.8195C23.025 29.6075 21.075 30.001 19 30Z" fill="white"/>
</g>
<defs>
<filter id="filter0_d_137_186" x="0" y="0" width="38" height="38" filterUnits="userSpaceOnUse" color-interpolation-filters="sRGB">
<feFlood flood-opacity="0" result="BackgroundImageFix"/>
<feColorMatrix in="SourceAlpha" type="matrix" values="0 0 0 0 0 0 0 0 0 0 0 0 0 0 0 0 0 0 127 0" result="hardAlpha"/>
<feOffset dy="4"/>
<feGaussianBlur stdDeviation="2"/>
<feComposite in2="hardAlpha" operator="out"/>
<feColorMatrix type="matrix" values="0 0 0 0 0 0 0 0 0 0 0 0 0 0 0 0 0 0 0.25 0"/>
<feBlend mode="normal" in2="BackgroundImageFix" result="effect1_dropShadow_137_186"/>
<feBlend mode="normal" in="SourceGraphic" in2="effect1_dropShadow_137_186" result="shape"/>
</filter>
</defs>
</svg>
